<svg xmlns="http://www.w3.org/2000/svg" version="1.1" xmlns:xlink="http://www.w3.org/1999/xlink" xmlns:svgjs="http://svgjs.com/svgjs" viewBox="0 0 24 24" height="24" width="24"><title>Exported from Streamline App (https://app.streamlineicons.com)</title><g transform="matrix(1,0,0,1,0,0)"><path d="M21.5,1.385l-7.582,6.847c-0.102,0.093-0.26,0.085-0.353-0.017C13.523,8.169,13.5,8.109,13.5,8.047V2.521 c0.01-0.828-0.653-1.508-1.482-1.518C11.643,0.999,11.28,1.135,11,1.385L0.505,10.863c-0.628,0.575-0.671,1.55-0.096,2.177 c0.031,0.033,0.062,0.065,0.096,0.096L11,22.614c0.617,0.552,1.566,0.5,2.118-0.118c0.25-0.28,0.386-0.643,0.382-1.018v-5.525 c0-0.138,0.112-0.25,0.25-0.25c0.062,0,0.122,0.023,0.168,0.065l7.582,6.846c0.617,0.552,1.566,0.5,2.118-0.118 c0.25-0.28,0.386-0.643,0.382-1.018V2.521c0.01-0.828-0.653-1.508-1.482-1.518C22.143,0.999,21.78,1.135,21.5,1.385z" stroke="none" fill="#ffffff" stroke-width="0" stroke-linecap="round" stroke-linejoin="round"></path></g></svg>