<svg xmlns="http://www.w3.org/2000/svg" version="1.1" xmlns:xlink="http://www.w3.org/1999/xlink" xmlns:svgjs="http://svgjs.com/svgjs" viewBox="0 0 24 24" height="24" width="24"><title>Exported from Streamline App (https://app.streamlineicons.com)</title><g transform="matrix(1,0,0,1,0,0)"><path d="M 2.25,6h19.5c0.828,0,1.5,0.672,1.5,1.5V21c0,0.828-0.672,1.5-1.5,1.5H2.25c-0.828,0-1.5-0.672-1.5-1.5V7.5 C0.75,6.672,1.422,6,2.25,6z " stroke="#0c6fb5" fill="none" stroke-width="1.5" stroke-linecap="round" stroke-linejoin="round"></path><path d="M 3.75,17.511v-6.558c-0.006-0.725,0.513-1.349,1.227-1.476C7.301,9.122,9.65,8.962,12,9 c2.35-0.038,4.699,0.122,7.023,0.477c0.714,0.127,1.233,0.751,1.227,1.476v6.558c0.004,0.734-0.526,1.362-1.25,1.481 c-2.316,0.355-4.657,0.525-7,0.508c-2.341,0.017-4.681-0.153-6.995-0.508C4.279,18.875,3.747,18.246,3.75,17.511z " stroke="#0c6fb5" fill="none" stroke-width="1.5" stroke-linecap="round" stroke-linejoin="round"></path><path d="M 10.5,1.5 L14.25,6L18,1.5" stroke="#0c6fb5" fill="none" stroke-width="1.5" stroke-linecap="round" stroke-linejoin="round"></path></g></svg>