<svg xmlns="http://www.w3.org/2000/svg" version="1.1" xmlns:xlink="http://www.w3.org/1999/xlink" xmlns:svgjs="http://svgjs.com/svgjs" viewBox="0 0 24 24" height="24" width="24"><title>Exported from Streamline App (https://app.streamlineicons.com)</title><g transform="matrix(1,0,0,1,0,0)"><path d="M 12,9.763c1.243,0,2.25,1.007,2.25,2.25s-1.007,2.25-2.25,2.25s-2.25-1.007-2.25-2.25S10.757,9.763,12,9.763z " stroke="#0c6fb5" fill="none" stroke-width="1.5" stroke-linecap="round" stroke-linejoin="round"></path><path d="M 12,3.763c1.243,0,2.25,1.007,2.25,2.25s-1.007,2.25-2.25,2.25s-2.25-1.007-2.25-2.25S10.757,3.763,12,3.763z " stroke="#0c6fb5" fill="none" stroke-width="1.5" stroke-linecap="round" stroke-linejoin="round"></path><path d="M 12,15.763 c1.243,0,2.25,1.007,2.25,2.25s-1.007,2.25-2.25,2.25s-2.25-1.007-2.25-2.25S10.757,15.763,12,15.763z " stroke="#0c6fb5" fill="none" stroke-width="1.5" stroke-linecap="round" stroke-linejoin="round"></path><path d="M 8.75,0.763h6.5 c1.105,0,2,0.895,2,2v18.5c0,1.105-0.895,2-2,2h-6.5c-1.105,0-2-0.895-2-2v-18.5C6.75,1.658,7.645,0.763,8.75,0.763z " stroke="#0c6fb5" fill="none" stroke-width="1.5" stroke-linecap="round" stroke-linejoin="round"></path><path d="M 6.75,3.763 H3.227C2.687,3.763,2.25,4.2,2.25,4.74c0,0.327,0.163,0.632,0.435,0.813l4.065,2.71 " stroke="#0c6fb5" fill="none" stroke-width="1.5" stroke-linecap="round" stroke-linejoin="round"></path><path d="M 6.75,9.763H3.227 c-0.54,0-0.977,0.437-0.977,0.977c0,0.327,0.163,0.632,0.435,0.813l4.065,2.71 " stroke="#0c6fb5" fill="none" stroke-width="1.5" stroke-linecap="round" stroke-linejoin="round"></path><path d="M 6.75,15.763H3.227c-0.54,0-0.977,0.437-0.977,0.977 c0,0.327,0.163,0.632,0.435,0.813l4.065,2.71 " stroke="#0c6fb5" fill="none" stroke-width="1.5" stroke-linecap="round" stroke-linejoin="round"></path><path d="M 17.25,3.763h3.523c0.54,0,0.977,0.437,0.977,0.977c0,0.327-0.163,0.632-0.435,0.813 l-4.065,2.71 " stroke="#0c6fb5" fill="none" stroke-width="1.5" stroke-linecap="round" stroke-linejoin="round"></path><path d="M 17.25,9.763h3.523c0.54,0,0.977,0.437,0.977,0.977c0,0.327-0.163,0.632-0.435,0.813l-4.065,2.71 " stroke="#0c6fb5" fill="none" stroke-width="1.5" stroke-linecap="round" stroke-linejoin="round"></path><path d="M 17.25,15.763h3.523 c0.54,0,0.977,0.437,0.977,0.977c0,0.327-0.163,0.632-0.435,0.813l-4.065,2.71" stroke="#0c6fb5" fill="none" stroke-width="1.5" stroke-linecap="round" stroke-linejoin="round"></path></g></svg>