<svg xmlns="http://www.w3.org/2000/svg" version="1.1" xmlns:xlink="http://www.w3.org/1999/xlink" xmlns:svgjs="http://svgjs.com/svgjs" viewBox="0 0 24 24" height="24" width="24"><title>Exported from Streamline App (https://app.streamlineicons.com)</title><g transform="matrix(1,0,0,1,0,0)"><path d="M 8.25,17.185c0.454-1.821,3.631-1.821,4.086,0c0.014-1.835,3.417-1.821,3.4,0 c0.337-4.17-2.77-7.824-6.94-8.161C8.614,9.01,8.432,9.002,8.25,9c-4.183,0.033-7.548,3.451-7.515,7.634 c0.001,0.184,0.01,0.368,0.024,0.551c-0.012-1.821,3.391-1.835,3.406,0C4.619,15.364,7.8,15.364,8.25,17.185z " stroke="#0c6fb5" fill="none" stroke-width="1.5" stroke-linecap="round" stroke-linejoin="round"></path><path d="M 8.25,9.016V7.5 " stroke="#0c6fb5" fill="none" stroke-width="1.5" stroke-linecap="round" stroke-linejoin="round"></path><path d="M 12.562,6.55c0.525-2.174,2.713-3.512,4.887-2.987s3.512,2.713,2.987,4.887c-0.369,1.531-1.592,2.709-3.136,3.02 " stroke="#0c6fb5" fill="none" stroke-width="1.5" stroke-linecap="round" stroke-linejoin="round"></path><path d="M 16.5,3.45v-2.7 " stroke="#0c6fb5" fill="none" stroke-width="1.5" stroke-linecap="round" stroke-linejoin="round"></path><path d="M 13.636,4.636l-1.909-1.909 " stroke="#0c6fb5" fill="none" stroke-width="1.5" stroke-linecap="round" stroke-linejoin="round"></path><path d="M 20.55,7.5h2.7 " stroke="#0c6fb5" fill="none" stroke-width="1.5" stroke-linecap="round" stroke-linejoin="round"></path><path d="M 19.364,4.636l1.909-1.909 " stroke="#0c6fb5" fill="none" stroke-width="1.5" stroke-linecap="round" stroke-linejoin="round"></path><path d="M 19.364,10.364l1.909,1.909 " stroke="#0c6fb5" fill="none" stroke-width="1.5" stroke-linecap="round" stroke-linejoin="round"></path><path d="M 8.25,17.185v4.565 c0,0.828,0.672,1.5,1.5,1.5s1.5-0.672,1.5-1.5" stroke="#0c6fb5" fill="none" stroke-width="1.5" stroke-linecap="round" stroke-linejoin="round"></path></g></svg>