<svg xmlns="http://www.w3.org/2000/svg" version="1.1" xmlns:xlink="http://www.w3.org/1999/xlink" xmlns:svgjs="http://svgjs.com/svgjs" viewBox="0 0 24 24" height="24" width="24"><title>Exported from Streamline App (https://app.streamlineicons.com)</title><g transform="matrix(1,0,0,1,0,0)"><path d="M 2.25,0.75h19.5c0.828,0,1.5,0.672,1.5,1.5v19.5c0,0.828-0.672,1.5-1.5,1.5H2.25c-0.828,0-1.5-0.672-1.5-1.5 V2.25C0.75,1.422,1.422,0.75,2.25,0.75z " stroke="#0c6fb5" fill="none" stroke-width="1.5" stroke-linecap="round" stroke-linejoin="round"></path><path d="M 13.5,13.5h6 " stroke="#0c6fb5" fill="none" stroke-width="1.5" stroke-linecap="round" stroke-linejoin="round"></path><path d="M 13.5,16.5h6 " stroke="#0c6fb5" fill="none" stroke-width="1.5" stroke-linecap="round" stroke-linejoin="round"></path><path d="M 13.5,19.5h3.75 " stroke="#0c6fb5" fill="none" stroke-width="1.5" stroke-linecap="round" stroke-linejoin="round"></path><path d="M 3.75,13.5h6 " stroke="#0c6fb5" fill="none" stroke-width="1.5" stroke-linecap="round" stroke-linejoin="round"></path><path d="M 3.75,16.5h6 " stroke="#0c6fb5" fill="none" stroke-width="1.5" stroke-linecap="round" stroke-linejoin="round"></path><path d="M 3.75,19.5H7.5 " stroke="#0c6fb5" fill="none" stroke-width="1.5" stroke-linecap="round" stroke-linejoin="round"></path><path d="M 4.5,3.75h15c0.414,0,0.75,0.336,0.75,0.75V9c0,0.414-0.336,0.75-0.75,0.75h-15C4.086,9.75,3.75,9.414,3.75,9V4.5 C3.75,4.086,4.086,3.75,4.5,3.75z" stroke="#0c6fb5" fill="none" stroke-width="1.5" stroke-linecap="round" stroke-linejoin="round"></path></g></svg>