<svg xmlns="http://www.w3.org/2000/svg" version="1.1" xmlns:xlink="http://www.w3.org/1999/xlink" xmlns:svgjs="http://svgjs.com/svgjs" viewBox="0 0 24 24" height="24" width="24"><title>Exported from Streamline App (https://app.streamlineicons.com)</title><g transform="matrix(1,0,0,1,0,0)"><path d="M23.5,10.865L13,1.384c-0.617-0.552-1.566-0.5-2.118,0.118c-0.251,0.28-0.387,0.644-0.382,1.02v5.525 c0,0.138-0.111,0.25-0.249,0.251c-0.062,0-0.123-0.023-0.169-0.065L2.5,1.384c-0.617-0.552-1.566-0.5-2.118,0.118 C0.131,1.782-0.005,2.146,0,2.522v18.957c-0.01,0.828,0.653,1.508,1.482,1.518c0.375,0.005,0.739-0.132,1.018-0.382l7.583-6.847 c0.102-0.093,0.26-0.085,0.353,0.017c0.042,0.046,0.065,0.106,0.065,0.169v5.525c-0.009,0.828,0.654,1.508,1.483,1.517 C12.358,23,12.721,22.864,13,22.615l10.5-9.479c0.627-0.574,0.67-1.547,0.097-2.174C23.566,10.928,23.534,10.896,23.5,10.865z" stroke="none" fill="#ffffff" stroke-width="0" stroke-linecap="round" stroke-linejoin="round"></path></g></svg>