<svg xmlns="http://www.w3.org/2000/svg" version="1.1" xmlns:xlink="http://www.w3.org/1999/xlink" xmlns:svgjs="http://svgjs.com/svgjs" viewBox="0 0 24 24" height="24" width="24"><title>Exported from Streamline App (https://app.streamlineicons.com)</title><g transform="matrix(1,0,0,1,0,0)"><path d="M8.5,5H23c0.552,0,1-0.448,1-1s-0.448-1-1-1H8.5c-0.552,0-1,0.448-1,1S7.948,5,8.5,5z M23,11H8.5c-0.552,0-1,0.448-1,1 s0.448,1,1,1H23c0.552,0,1-0.448,1-1S23.552,11,23,11z M23,19H8.5c-0.552,0-1,0.448-1,1s0.448,1,1,1H23c0.552,0,1-0.448,1-1 S23.552,19,23,19z M1.5,2.498h2c0.276,0,0.5,0.224,0.5,0.5v2c0,0.276-0.224,0.5-0.5,0.5h-2c-0.276,0-0.5-0.224-0.5-0.5v-2 C1,2.722,1.224,2.498,1.5,2.498z M3.5,1.5h-2C0.672,1.5,0,2.172,0,3v2c0,0.828,0.672,1.5,1.5,1.5h2C4.328,6.5,5,5.828,5,5V3 C5,2.172,4.328,1.5,3.5,1.5z M4,5c0,0.276-0.224,0.5-0.5,0.5h-2C1.224,5.5,1,5.276,1,5V3c0-0.276,0.224-0.5,0.5-0.5h2 C3.776,2.5,4,2.724,4,3V5z M1.5,10.498h2c0.276,0,0.5,0.224,0.5,0.5v2c0,0.276-0.224,0.5-0.5,0.5h-2c-0.276,0-0.5-0.224-0.5-0.5v-2 C1,10.722,1.224,10.498,1.5,10.498z M3.5,9.5h-2C0.672,9.5,0,10.172,0,11v2c0,0.828,0.672,1.5,1.5,1.5h2C4.328,14.5,5,13.828,5,13 v-2C5,10.172,4.328,9.5,3.5,9.5z M4,13c0,0.276-0.224,0.5-0.5,0.5h-2C1.224,13.5,1,13.276,1,13v-2c0-0.276,0.224-0.5,0.5-0.5h2 C3.776,10.5,4,10.724,4,11V13z M1.5,18.498h2c0.276,0,0.5,0.224,0.5,0.5v2c0,0.276-0.224,0.5-0.5,0.5h-2 c-0.276,0-0.5-0.224-0.5-0.5v-2C1,18.722,1.224,18.498,1.5,18.498z M3.5,17.5h-2C0.672,17.5,0,18.172,0,19v2 c0,0.828,0.672,1.5,1.5,1.5h2C4.328,22.5,5,21.828,5,21v-2C5,18.172,4.328,17.5,3.5,17.5z M4,21c0,0.276-0.224,0.5-0.5,0.5h-2 C1.224,21.5,1,21.276,1,21v-2c0-0.276,0.224-0.5,0.5-0.5h2C3.776,18.5,4,18.724,4,19V21z" stroke="none" fill="#ffffff" stroke-width="0" stroke-linecap="round" stroke-linejoin="round"></path></g></svg>